<?xml version="1.0" encoding="utf-8"?>
<!-- Generator: Adobe Illustrator 19.0.0, SVG Export Plug-In . SVG Version: 6.00 Build 0)  -->
<svg version="1.1" xmlns="http://www.w3.org/2000/svg" xmlns:xlink="http://www.w3.org/1999/xlink" x="0px" y="0px"
	 viewBox="0 0 334.5 120" style="enable-background:new 0 0 334.5 120;" xml:space="preserve">
<style type="text/css">
	.st0{fill:#FFFFFF;}
	.st1{fill-rule:evenodd;clip-rule:evenodd;fill:#ED1C24;}
	.st2{fill-rule:evenodd;clip-rule:evenodd;fill:#FFFFFF;}
	.st3{fill-rule:evenodd;clip-rule:evenodd;}
</style>
<g id="Layer_1">
	<g>
		<g>
			<path d="M219.6,92.8h7.7v2.4h-5.1v5.4h4.4v2.4h-4.4v7.7h-2.6V92.8z"/>
			<path d="M229,97c0-2.9,2.2-4.4,4.3-4.4c2.1,0,4.3,1.5,4.3,4.4v9.5c0,2.9-2.2,4.4-4.3,4.4c-2.1,0-4.3-1.5-4.3-4.4V97z
				 M231.5,106.5c0,1.2,0.8,1.8,1.7,1.8c0.9,0,1.7-0.6,1.7-1.8V97c0-1.2-0.8-1.8-1.7-1.8c-0.9,0-1.7,0.6-1.7,1.8V106.5z"/>
			<path d="M249.7,106.7c0,2.3-1.9,4.2-4.2,4.2c-2.3,0-4.2-1.8-4.2-4.2V92.8h2.6v13.7c0,1.3,0.7,1.9,1.6,1.9c0.9,0,1.6-0.6,1.6-1.9
				V92.8h2.6V106.7z"/>
			<path d="M253.5,92.8h2.5l3.9,10.8h0.1V92.8h2.6v17.9h-2.4l-3.9-10.8h-0.1v10.8h-2.6V92.8z"/>
			<path d="M266.3,92.8h3.8c2.9,0,4.5,1.7,4.5,4.6v8.4c0,3.3-1.7,4.9-4.7,4.9h-3.6V92.8z M268.9,108.3h1.2c1.4,0,2-0.7,2-2.2v-8.6
				c0-1.4-0.5-2.2-2-2.2h-1.2V108.3z"/>
			<path d="M281.1,92.8h2.1l4,17.9h-2.6l-0.8-3.9h-3.5l-0.8,3.9h-2.6L281.1,92.8z M282.2,97.9L282.2,97.9l-1.3,6.5h2.6L282.2,97.9z"
				/>
			<path d="M290.3,95.2h-3v-2.4h8.5v2.4h-3v15.5h-2.6V95.2z"/>
			<path d="M298.6,92.8h2.6v17.9h-2.6V92.8z"/>
			<path d="M305,97c0-2.9,2.2-4.4,4.3-4.4c2.1,0,4.3,1.5,4.3,4.4v9.5c0,2.9-2.2,4.4-4.3,4.4c-2.1,0-4.3-1.5-4.3-4.4V97z
				 M307.6,106.5c0,1.2,0.8,1.8,1.7,1.8c0.9,0,1.7-0.6,1.7-1.8V97c0-1.2-0.8-1.8-1.7-1.8c-0.9,0-1.7,0.6-1.7,1.8V106.5z"/>
			<path d="M317.3,92.8h2.5l3.9,10.8h0V92.8h2.6v17.9h-2.4l-3.9-10.8h-0.1v10.8h-2.6V92.8z"/>
		</g>
		<g>
			<path d="M10.5,92.8h7.7v2.4h-5.1v5.3h4.4v2.4h-4.4v5.3h5.1v2.6h-7.7V92.8z"/>
			<path d="M21.4,92.8h2.6v15.4H29v2.6h-7.7V92.8z"/>
			<path d="M32.2,92.8h7.7v2.4h-5.1v5.3h4.4v2.4h-4.4v5.3h5.1v2.6h-7.7V92.8z"/>
			<path d="M51.2,106.7c0,2.2-1.8,4.2-4.1,4.2c-2,0-4.2-1-4.2-4.2v-9.9c0-2.3,1.7-4.1,4.2-4.1c2.4,0,4.1,1.8,4.1,4.3v1h-2.6v-0.9
				c0-1-0.6-1.9-1.6-1.9c-1.3,0-1.6,0.9-1.6,2.1v9.2c0,1,0.4,1.8,1.6,1.8c0.7,0,1.6-0.4,1.6-1.8v-0.9h2.6V106.7z"/>
			<path d="M55.7,95.2h-3v-2.4h8.5v2.4h-3v15.5h-2.6V95.2z"/>
			<path d="M63.9,92.8h4.1c3,0,4.5,1.8,4.5,5.3c0,2.1-0.6,3.6-2.2,4.5l2.8,8.2h-2.7l-2.4-7.7h-1.5v7.7h-2.6V92.8z M66.5,100.8H68
				c1.8,0,2.1-1,2.1-2.8c0-1.8-0.3-2.8-2.2-2.8h-1.3V100.8z"/>
			<path d="M76,97c0-2.9,2.2-4.4,4.3-4.4c2.1,0,4.3,1.5,4.3,4.4v9.5c0,2.9-2.2,4.4-4.3,4.4c-2.1,0-4.3-1.5-4.3-4.4V97z M78.6,106.5
				c0,1.2,0.8,1.8,1.7,1.8c0.9,0,1.7-0.6,1.7-1.8V97c0-1.2-0.8-1.8-1.7-1.8c-0.9,0-1.7,0.6-1.7,1.8V106.5z"/>
			<path d="M88.3,92.8h2.5l3.9,10.8h0.1V92.8h2.6v17.9h-2.4l-3.9-10.8h0v10.8h-2.6V92.8z"/>
			<path d="M101.2,92.8h2.6v17.9h-2.6V92.8z"/>
			<path d="M115.9,106.7c0,2.2-1.8,4.2-4.1,4.2c-2,0-4.2-1-4.2-4.2v-9.9c0-2.3,1.7-4.1,4.2-4.1c2.4,0,4.1,1.8,4.1,4.3v1h-2.6v-0.9
				c0-1-0.6-1.9-1.6-1.9c-1.3,0-1.6,0.9-1.6,2.1v9.2c0,1,0.4,1.8,1.6,1.8c0.7,0,1.6-0.4,1.6-1.8v-0.9h2.6V106.7z"/>
		</g>
		<g>
			<path d="M125.7,92.8h7.7v2.4h-5.1v5.4h4.4v2.4h-4.4v7.7h-2.6V92.8z"/>
			<path d="M136.6,92.8h4.1c3,0,4.5,1.8,4.5,5.3c0,2.1-0.6,3.6-2.2,4.5l2.8,8.2h-2.7l-2.4-7.7h-1.5v7.7h-2.6V92.8z M139.1,100.8h1.5
				c1.8,0,2.1-1,2.1-2.8c0-1.8-0.3-2.8-2.2-2.8h-1.3V100.8z"/>
			<path d="M148.7,97c0-2.9,2.2-4.4,4.3-4.4c2.1,0,4.3,1.5,4.3,4.4v9.5c0,2.9-2.2,4.4-4.3,4.4c-2.1,0-4.3-1.5-4.3-4.4V97z
				 M151.2,106.5c0,1.2,0.8,1.8,1.7,1.8s1.7-0.6,1.7-1.8V97c0-1.2-0.8-1.8-1.7-1.8s-1.7,0.6-1.7,1.8V106.5z"/>
			<path d="M161,92.8h2.5l3.9,10.8h0.1V92.8h2.6v17.9h-2.4l-3.9-10.8h-0.1v10.8H161V92.8z"/>
			<path d="M175.4,95.2h-3v-2.4h8.5v2.4h-3v15.5h-2.6V95.2z"/>
			<path d="M183.7,92.8h2.6v17.9h-2.6V92.8z"/>
			<path d="M190.3,92.8h7.7v2.4h-5.1v5.3h4.4v2.4h-4.4v5.3h5.1v2.6h-7.7V92.8z"/>
			<path d="M201.1,92.8h4.1c3,0,4.5,1.8,4.5,5.3c0,2.1-0.6,3.6-2.2,4.5l2.8,8.2h-2.7l-2.4-7.7h-1.5v7.7h-2.6V92.8z M203.7,100.8h1.5
				c1.8,0,2.1-1,2.1-2.8c0-1.8-0.3-2.8-2.2-2.8h-1.3V100.8z"/>
		</g>
	</g>
</g>
<g id="Layer_5">
	<g id="White_Stroke">
	</g>
	<g id="Red_circle">
	</g>
	<g id="FF">
	</g>
	<g id="E">
		<g>
			<path class="st0" d="M182.6,3.7c-10,0-19.6,4.1-26.6,11.3h-43v51.2h43c6.9,7.2,16.5,11.3,26.6,11.3c20.4,0,36.9-16.6,36.9-36.9
				C219.5,20.3,202.9,3.7,182.6,3.7z M139.2,28.6h8.5c-0.5,1.3-0.8,2.6-1.1,4h-7.4V28.6z M139.2,52.6v-6.5h6.9
				c0.3,2.2,0.9,4.4,1.6,6.5H139.2z"/>
			<path class="st1" d="M148.7,40.6c0-18.7,15.2-33.9,33.9-33.9c18.7,0,33.9,15.2,33.9,33.9s-15.2,33.9-33.9,33.9
				C163.9,74.5,148.7,59.3,148.7,40.6z"/>
			<g>
				<polygon class="st2" points="180.1,18 180.1,38.1 183.8,38.1 183.8,30.6 186.4,30.6 186.4,26.8 183.8,26.8 183.8,21.8 
					187.6,21.8 187.6,18 				"/>
				<polygon class="st2" points="180.1,43.1 180.1,63.2 183.8,63.2 183.8,55.7 186.4,55.7 186.4,51.9 183.8,51.9 183.8,46.9 
					187.6,46.9 187.6,43.1 				"/>
			</g>
			<g>
				<polygon class="st3" points="116.1,18 172.6,18 172.6,25.5 136.2,25.5 136.2,35.6 171.3,35.6 171.3,43.1 136.2,43.1 136.2,55.7 
					172.6,55.7 172.6,63.2 116.1,63.2 				"/>
			</g>
		</g>
	</g>
</g>
</svg>
