<?xml version="1.0" encoding="utf-8"?>
<!-- Generator: Adobe Illustrator 19.0.0, SVG Export Plug-In . SVG Version: 6.00 Build 0)  -->
<svg version="1.1" id="Layer_1" xmlns="http://www.w3.org/2000/svg" xmlns:xlink="http://www.w3.org/1999/xlink" x="0px" y="0px"
	 viewBox="0 3.2 74.7 354.8" style="enable-background:new 0 3.2 74.7 354.8;" xml:space="preserve">
<style type="text/css">
	.st0{fill:#C50000;}
</style>
<g>
	<path class="st0" d="M0,358h74.7v-74.7H0V358z M17,312.3h9.8c4,0,7.3,2.8,8.2,6.6h0h4.7h0c0.8-3.8,4.2-6.6,8.2-6.6h9.8
		c4.6,0,8.4,3.7,8.4,8.4c0,4.7-3.8,8.4-8.4,8.4h-9.8c-3.9,0-7.3-2.8-8.2-6.8h0H35h0c-0.8,3.9-4.2,6.8-8.2,6.8H17
		c-4.7,0-8.4-3.7-8.4-8.4C8.6,316,12.4,312.3,17,312.3z"/>
	<path class="st0" d="M52.1,320.6c0,1-0.8,1.7-1.7,1.7h-7.1c0.7,2.1,2.5,3.4,4.6,3.4h9.8c2.8,0,5-2.2,5-5s-2.2-5-5-5h-9.8
		c-2.2,0-3.9,1.4-4.7,3.2h7.2C51.4,318.9,52.1,319.6,52.1,320.6z"/>
	<path class="st0" d="M17,325.7h9.8c2.2,0,3.9-1.4,4.7-3.4h-4.7c-1,0-1.7-0.7-1.7-1.7s0.8-1.7,1.7-1.7h4.7c-0.7-1.8-2.5-3.2-4.7-3.2
		H17c-2.8,0-5,2.2-5,5S14.2,325.7,17,325.7z"/>
	<path class="st0" d="M0,3.2v74.7h74.7V3.2H0z M57.4,31.1c0,0.5,0,0.8,0,1.3c0,12.5-9.6,27-27,27c-5.3,0-10.4-1.5-14.5-4.2
		c0.7,0.1,1.5,0.1,2.3,0.1c4.4,0,8.6-1.5,11.8-4.1c-4.1-0.1-7.7-2.8-8.8-6.6c0.5,0.1,1.2,0.2,1.8,0.2c0.9,0,1.7-0.1,2.5-0.4
		c-4.3-0.9-7.6-4.7-7.6-9.3V35c1.3,0.7,2.7,1.2,4.3,1.2c-2.5-1.8-4.2-4.6-4.2-8c0-1.7,0.5-3.3,1.3-4.8c4.7,5.8,11.6,9.5,19.6,9.9
		c-0.2-0.7-0.3-1.4-0.3-2.2c0-5.2,4.2-9.5,9.5-9.5c2.7,0,5.2,1.2,6.9,3c2.2-0.5,4.1-1.2,6-2.3c-0.7,2.3-2.3,4.1-4.1,5.2
		c1.9-0.3,3.8-0.7,5.4-1.5C60.9,28.1,59.3,29.8,57.4,31.1z"/>
	<path class="st0" d="M0,171.2h74.7V96.6H0V171.2z M26.9,126.5h4.5v-6.1c0-1.1-0.3-8.6,9.4-8.6h6.8l0.1,7.7h-5.1c-1,0-2,1-2,1.8v5.1
		h6.9c-0.3,3.9-0.9,7.5-0.9,7.5h-6.1v22.3h-9.1v-22.3h-4.5V126.5z"/>
	<path class="st0" d="M31.9,221.8c4.3-8.8-10.1-9.4-5.7,0C27.6,223,30.4,222.9,31.9,221.8z"/>
	<path class="st0" d="M34.3,240.7c-0.3-2.9-4.4-3.2-6.6-2.8c-2.1,0.3-3.6,1.6-2.7,4.2C26,245.1,34.7,244.9,34.3,240.7z"/>
	<path class="st0" d="M0,264.7h74.7V190H0V264.7z M41.9,221.5h6.7v-6.8h5.3v6.8h6.8v5.1h-6.8v6.8h-5.3v-6.8h-6.7V221.5z M23.6,227.1
		c-8.5-5.4-4.8-19,6.9-17.5c2.6,0.4,6.3,2.3,9.8,0v5.9c-0.7,0.2-1.4,0.5-2.2,0.5c1.4,4.1-0.7,9.5-4.5,11.3c-2,1-5.3,0.5-5.4,3
		c-0.2,3.4,8.9,3.8,10.7,6c2,2.4,1.7,7.6-0.6,10.1c-3.2,3.6-14.3,3.9-18,0c-3-3.2-1.9-10.9,3.6-11.5
		C21.6,234.1,21.4,228.3,23.6,227.1z"/>
</g>
</svg>
